<?xml version="1.0" encoding="UTF-8" standalone="no"?>
<!-- Created with Inkscape (http://www.inkscape.org/) -->

<svg
   width="89.458664mm"
   height="27.393896mm"
   viewBox="0 0 89.458664 27.393896"
   version="1.1"
   id="svg5"
   xmlns="http://www.w3.org/2000/svg"
   xmlns:svg="http://www.w3.org/2000/svg">
  <defs
     id="defs2" />
  <g
     id="layer1"
     transform="translate(-64.536768,-60.426147)">
    <g
       id="g1287">
      <path
         d="m 71.813868,86.905645 q 0,0.6096 -3.6195,0.6096 -3.6576,0 -3.6576,-0.5715 V 62.102547 q 0,-1.3335 1.4097,-1.3335 h 7.2771 q 10.020299,0 10.020299,7.8105 0,2.362199 -0.9144,4.305299 -0.9144,1.905 -2.5908,3.048 l 4.8006,8.001 q -0.3048,0.9144 -1.9812,2.095499 -2.286,1.6383 -3.7719,1.6383 -1.4859,0 -2.2098,-1.0668 l -3.581399,-8.343899 h -1.1811 z m 0,-19.392898 v 5.714999 h 0.1905 q 3.6195,0 3.6195,-3.009899 0,-1.3716 -0.7239,-2.0193 -0.6858,-0.6858 -2.286,-0.6858 z"
         style="font-size:38.1px;font-family:'Lilita One';-inkscape-font-specification:'Lilita One';stroke-width:0.264583"
         id="path1227" />
      <path
         d="m 85.529799,61.264347 q 0,-0.1905 1.6383,-0.3429 1.6764,-0.1905 2.7432,-0.1905 4.2291,0 4.4196,1.1049 l 3.2766,16.763999 3.086101,-16.763999 q 0.2286,-1.1049 4.7244,-1.1049 1.1049,0 2.7813,0.1524 1.6764,0.1524 1.6764,0.3429 l -6.7437,25.222198 q -0.1524,0.6096 -2.2479,0.8001 -3.238501,0.3429 -5.905501,0.1524 -2.6289,-0.2286 -2.7813,-0.762 z"
         style="font-size:38.1px;font-family:'Lilita One';-inkscape-font-specification:'Lilita One';stroke-width:0.264583"
         id="path1229" />
      <path
         d="m 123.09637,60.426147 q 2.7813,0 4.8768,0.8001 2.1336,0.762 2.1336,2.0955 0,1.3335 -1.0287,3.3147 -0.9906,1.9431 -1.6764,1.9431 -0.1905,0 -0.4572,-0.1905 -0.2286,-0.2286 -1.143,-0.4572 -0.8763,-0.2667 -1.524,-0.2667 -2.2098,0 -3.5814,1.5621 -1.3335,1.562099 -1.3335,4.800599 0,3.2004 1.3716,4.7625 1.4097,1.5621 3.5433,1.5621 0.8763,0 1.9431,-0.2286 1.1049,-0.2667 1.5621,-0.7239 0.0762,-0.0762 0.3048,-0.0762 0.2286,0 0.8382,0.8763 0.6477,0.8382 1.1811,2.2479 0.5334,1.3716 0.5334,2.1336 0,1.485899 -2.286,2.362199 -2.286,0.8763 -5.4102,0.8763 -5.0292,0 -8.2677,-3.543299 -3.2385,-3.5433 -3.2385,-9.9822 0,-6.476999 3.3147,-10.172699 3.3528,-3.6957 8.3439,-3.6957 z"
         style="font-size:38.1px;font-family:'Lilita One';-inkscape-font-specification:'Lilita One';stroke-width:0.264583"
         id="path1231" />
      <path
         d="M 133.57383,85.686445 V 62.826447 q 0,-0.9525 0.4572,-1.4859 0.4953,-0.5715 1.2573,-0.5715 h 6.3627 q 6.0579,0 9.1821,3.048 3.1623,3.048 3.1623,9.601199 0,14.020799 -11.9634,14.020799 h -6.5151 q -1.9431,0 -1.9431,-1.7526 z m 7.3152,-17.678398 v 11.391899 q 0,0.8001 0.1143,1.0287 0.1143,0.1905 0.6858,0.1905 2.0955,0 3.1623,-1.5621 1.1049,-1.5621 1.1049,-5.1816 0,-3.657599 -1.143,-4.762499 -1.1049,-1.1049 -3.5433,-1.1049 z"
         style="font-size:38.1px;font-family:'Lilita One';-inkscape-font-specification:'Lilita One';stroke-width:0.264583"
         id="path1233" />
    </g>
  </g>
</svg>
